<svg width="64" height="64" viewBox="0 0 64 64" fill="none" xmlns="http://www.w3.org/2000/svg">
  <rect width="64" height="64" rx="20" fill="url(#bg)" />
  <rect x="2" y="2" width="60" height="60" rx="18" stroke="#FFF7F6" stroke-opacity="0.45" stroke-width="2" />
  <path
    d="M11 45V19H15.2L26.8 35.2V19H31.5V45H27.4L15.7 28.7V45H11Z"
    fill="#FFF9F7"
  />
  <path
    d="M36 45V19H45.3C50.2 19 53.2 21.9 53.2 26.2C53.2 29.3 51.4 31.6 48.5 32.5L53.8 45H48.7L44 33.4H40.8V45H36ZM40.8 29.2H44.6C47.1 29.2 48.3 28.2 48.3 26.2C48.3 24.2 47.1 23.2 44.6 23.2H40.8V29.2Z"
    fill="#FFF9F7"
  />
  <defs>
    <linearGradient id="bg" x1="7" y1="6" x2="56" y2="58" gradientUnits="userSpaceOnUse">
      <stop stop-color="#CF6F88" />
      <stop offset="0.55" stop-color="#E29AAD" />
      <stop offset="1" stop-color="#F0B29D" />
    </linearGradient>
  </defs>
</svg>
